<svg width="904" height="207" viewBox="0 0 904 207" fill="none" xmlns="http://www.w3.org/2000/svg">
<g clip-path="url(#clip0_145_287)">
<path d="M206.58 62.88C206.27 28.23 177.58 0.519997 142.92 0.519997H0C4.54224 14.079 13.2303 25.8678 24.8366 34.2208C36.4428 42.5738 50.3804 47.0686 64.68 47.07H143.68C148.027 47.07 152.196 48.7968 155.269 51.8705C158.343 54.9442 160.07 59.1131 160.07 63.46C160.07 67.8069 158.343 71.9758 155.269 75.0495C152.196 78.1232 148.027 79.85 143.68 79.85H26.68C31.2197 93.3968 39.8975 105.177 51.4895 113.529C63.0815 121.88 77.0028 126.382 91.29 126.4H143.65C147.997 126.4 152.166 128.127 155.239 131.201C158.313 134.274 160.04 138.443 160.04 142.79C160.04 147.137 158.313 151.306 155.239 154.379C152.166 157.453 147.997 159.18 143.65 159.18H53.24C57.79 172.732 66.4809 184.512 78.0861 192.859C89.6914 201.206 103.625 205.698 117.92 205.7H142.92C177.57 205.7 206.27 177.99 206.58 143.34C206.718 128.687 201.711 114.45 192.43 103.11C201.708 91.7682 206.715 77.5324 206.58 62.88Z" fill="white"/>
<path d="M283.37 44.2L304.29 78.38L335.82 57.16V206.25C342.436 206.251 348.988 204.949 355.101 202.418C361.214 199.886 366.769 196.175 371.447 191.497C376.126 186.818 379.836 181.264 382.368 175.151C384.899 169.038 386.201 162.486 386.2 155.87V0H349.08L283.37 44.2Z" fill="white"/>
<path d="M550.53 120.22L470.09 0H425.89V206.25C439.331 206.25 452.222 200.911 461.726 191.406C471.231 181.902 476.57 169.011 476.57 155.57V86L557 206.25C562.804 206.251 568.551 205.109 573.914 202.889C579.277 200.669 584.149 197.414 588.254 193.311C592.358 189.207 595.614 184.335 597.835 178.973C600.057 173.611 601.2 167.864 601.2 162.06V0H550.53V120.22Z" fill="white"/>
<path d="M626.9 44.2L647.82 78.38L679.35 57.16V206.25C692.711 206.25 705.526 200.942 714.974 191.494C724.422 182.046 729.73 169.232 729.73 155.87V0H692.61L626.9 44.2Z" fill="white"/>
<path d="M756.42 0V47.73H804.74V206.25C818.102 206.25 830.916 200.942 840.364 191.494C849.812 182.046 855.12 169.232 855.12 155.87V47.73H903.44V0H756.42Z" fill="white"/>
<path d="M275.95 85.27H243.6C233.736 85.27 225.74 93.2662 225.74 103.13C225.74 112.994 233.736 120.99 243.6 120.99H275.95C285.814 120.99 293.81 112.994 293.81 103.13C293.81 93.2662 285.814 85.27 275.95 85.27Z" fill="white"/>
<path d="M206.58 62.88C206.27 28.23 177.58 0.519997 142.92 0.519997H0C4.54224 14.079 13.2303 25.8678 24.8366 34.2208C36.4428 42.5738 50.3804 47.0686 64.68 47.07H143.68C148.027 47.07 152.196 48.7968 155.269 51.8705C158.343 54.9442 160.07 59.1131 160.07 63.46C160.07 67.8069 158.343 71.9758 155.269 75.0495C152.196 78.1232 148.027 79.85 143.68 79.85H26.68C31.2197 93.3968 39.8975 105.177 51.4895 113.529C63.0815 121.88 77.0028 126.382 91.29 126.4H143.65C147.997 126.4 152.166 128.127 155.239 131.201C158.313 134.274 160.04 138.443 160.04 142.79C160.04 147.137 158.313 151.306 155.239 154.379C152.166 157.453 147.997 159.18 143.65 159.18H53.24C57.79 172.732 66.4809 184.512 78.0861 192.859C89.6914 201.206 103.625 205.698 117.92 205.7H142.92C177.57 205.7 206.27 177.99 206.58 143.34C206.718 128.687 201.711 114.45 192.43 103.11C201.708 91.7682 206.715 77.5324 206.58 62.88Z" fill="white"/>
<path d="M283.37 44.2L304.29 78.38L335.82 57.16V206.25C342.436 206.251 348.988 204.949 355.101 202.418C361.214 199.886 366.769 196.175 371.447 191.497C376.126 186.818 379.836 181.264 382.368 175.151C384.899 169.038 386.201 162.486 386.2 155.87V0H349.08L283.37 44.2Z" fill="white"/>
<path d="M550.53 120.22L470.09 0H425.89V206.25C439.331 206.25 452.222 200.911 461.726 191.406C471.231 181.902 476.57 169.011 476.57 155.57V86L557 206.25C562.804 206.251 568.551 205.109 573.914 202.889C579.277 200.669 584.149 197.414 588.254 193.311C592.358 189.207 595.614 184.335 597.835 178.973C600.057 173.611 601.2 167.864 601.2 162.06V0H550.53V120.22Z" fill="white"/>
<path d="M626.9 44.2L647.82 78.38L679.35 57.16V206.25C692.711 206.25 705.526 200.942 714.974 191.494C724.422 182.046 729.73 169.232 729.73 155.87V0H692.61L626.9 44.2Z" fill="white"/>
<path d="M756.42 0V47.73H804.74V206.25C818.102 206.25 830.916 200.942 840.364 191.494C849.812 182.046 855.12 169.232 855.12 155.87V47.73H903.44V0H756.42Z" fill="white"/>
<path d="M275.95 85.27H243.6C233.736 85.27 225.74 93.2662 225.74 103.13C225.74 112.994 233.736 120.99 243.6 120.99H275.95C285.814 120.99 293.81 112.994 293.81 103.13C293.81 93.2662 285.814 85.27 275.95 85.27Z" fill="white"/>
</g>
<defs>
<clipPath id="clip0_145_287">
<rect width="903.45" height="206.25" fill="white"/>
</clipPath>
</defs>
</svg>
