<svg width="334" height="332" viewBox="0 0 334 332" fill="none" xmlns="http://www.w3.org/2000/svg">
<path d="M318.866 96.3438C318.385 42.7939 274.09 0 220.577 0H0V0.0359492C7.01979 20.9773 20.4382 39.1817 38.3591 52.0769C56.2801 64.972 77.7973 71.9058 99.8702 71.8984H221.726C235.435 71.8984 247.024 83.4884 247.024 97.2138C247.024 110.939 235.435 122.529 221.726 122.529H41.1049C41.1049 122.529 41.0689 122.529 41.1049 122.565C48.1185 143.513 61.5343 161.726 79.4558 174.627C97.3772 187.529 118.898 194.468 140.975 194.464H221.726C235.435 194.464 247.024 206.061 247.024 219.779C247.024 233.497 235.435 245.102 221.726 245.102H82.181C89.1947 266.05 102.61 284.262 120.532 297.164C138.453 310.066 159.974 317.005 182.051 317H220.577C274.068 317 318.363 274.199 318.845 220.656C319.058 198.023 311.326 176.033 296.995 158.522C311.342 141.001 319.083 118.994 318.866 96.3438Z" fill="white"/>
</svg>
